<mxfile host="app.diagrams.net" agent="Mozilla/5.0 (Macintosh; Intel Mac OS X 10_15_7) AppleWebKit/537.36 (KHTML, like Gecko) Chrome/131.0.0.0 Safari/537.36" version="26.0.11">
  <diagram name="第 1 页" id="WJUtz7Rxz2oehlu2ZGch">
    <mxGraphModel dx="1242" dy="785" grid="0" gridSize="10" guides="1" tooltips="1" connect="1" arrows="1" fold="1" page="1" pageScale="1" pageWidth="827" pageHeight="1169" math="0" shadow="0">
      <root>
        <mxCell id="0" />
        <mxCell id="1" parent="0" />
        <mxCell id="g6ToRq7C6qLXgpcezVMa-1" value="运维人员" style="shape=umlActor;verticalLabelPosition=bottom;verticalAlign=top;html=1;" vertex="1" parent="1">
          <mxGeometry x="184" y="329" width="30" height="60" as="geometry" />
        </mxCell>
        <mxCell id="g6ToRq7C6qLXgpcezVMa-2" value="" style="rounded=0;whiteSpace=wrap;html=1;" vertex="1" parent="1">
          <mxGeometry x="279" y="188" width="232" height="380" as="geometry" />
        </mxCell>
        <mxCell id="g6ToRq7C6qLXgpcezVMa-3" value="运维平台模块用例图" style="text;html=1;align=center;verticalAlign=middle;whiteSpace=wrap;rounded=0;" vertex="1" parent="1">
          <mxGeometry x="345.5" y="188" width="99" height="30" as="geometry" />
        </mxCell>
        <mxCell id="g6ToRq7C6qLXgpcezVMa-4" value="编辑运营数据图" style="ellipse;whiteSpace=wrap;html=1;" vertex="1" parent="1">
          <mxGeometry x="349" y="428" width="100" height="50" as="geometry" />
        </mxCell>
        <mxCell id="g6ToRq7C6qLXgpcezVMa-5" value="" style="endArrow=none;html=1;rounded=0;exitX=1;exitY=0.3333333333333333;exitDx=0;exitDy=0;exitPerimeter=0;entryX=0;entryY=0.5;entryDx=0;entryDy=0;" edge="1" parent="1" source="g6ToRq7C6qLXgpcezVMa-1" target="g6ToRq7C6qLXgpcezVMa-4">
          <mxGeometry width="50" height="50" relative="1" as="geometry">
            <mxPoint x="141" y="508" as="sourcePoint" />
            <mxPoint x="223" y="493" as="targetPoint" />
          </mxGeometry>
        </mxCell>
        <mxCell id="g6ToRq7C6qLXgpcezVMa-6" value="查看运营数据" style="ellipse;whiteSpace=wrap;html=1;" vertex="1" parent="1">
          <mxGeometry x="349" y="241" width="100" height="50" as="geometry" />
        </mxCell>
        <mxCell id="g6ToRq7C6qLXgpcezVMa-7" value="" style="endArrow=none;html=1;rounded=0;entryX=0;entryY=0.5;entryDx=0;entryDy=0;exitX=1;exitY=0.3333333333333333;exitDx=0;exitDy=0;exitPerimeter=0;" edge="1" parent="1" source="g6ToRq7C6qLXgpcezVMa-1" target="g6ToRq7C6qLXgpcezVMa-6">
          <mxGeometry width="50" height="50" relative="1" as="geometry">
            <mxPoint x="145" y="498" as="sourcePoint" />
            <mxPoint x="251" y="596" as="targetPoint" />
          </mxGeometry>
        </mxCell>
        <mxCell id="g6ToRq7C6qLXgpcezVMa-8" value="创建运营数据仪表盘" style="ellipse;whiteSpace=wrap;html=1;" vertex="1" parent="1">
          <mxGeometry x="349" y="326" width="100" height="50" as="geometry" />
        </mxCell>
        <mxCell id="g6ToRq7C6qLXgpcezVMa-9" value="" style="endArrow=none;html=1;rounded=0;entryX=0;entryY=0.5;entryDx=0;entryDy=0;exitX=1;exitY=0.3333333333333333;exitDx=0;exitDy=0;exitPerimeter=0;" edge="1" parent="1" source="g6ToRq7C6qLXgpcezVMa-1" target="g6ToRq7C6qLXgpcezVMa-8">
          <mxGeometry width="50" height="50" relative="1" as="geometry">
            <mxPoint x="156" y="350" as="sourcePoint" />
            <mxPoint x="359" y="276" as="targetPoint" />
          </mxGeometry>
        </mxCell>
      </root>
    </mxGraphModel>
  </diagram>
</mxfile>
